<svg width="35" height="33" viewBox="0 0 35 33" fill="none" xmlns="http://www.w3.org/2000/svg">
<path d="M33.1658 23.7199V8.99723C33.1658 7.63948 32.0228 6.54346 30.6069 6.54346H6.70739C5.29151 6.54346 4.14856 7.63948 4.14856 8.99723V23.7199C4.14856 25.0776 5.29151 26.1736 6.70739 26.1736H30.6069C32.0228 26.1736 33.1658 25.0776 33.1658 23.7199ZM30.931 8.81729C31.494 9.35712 31.1869 9.91331 30.8799 10.1914L23.9539 16.2768L30.6069 22.9183C30.8116 23.1473 30.9481 23.5072 30.7093 23.7526C30.4875 24.0143 29.9757 23.998 29.754 23.8344L22.2992 17.7327L18.6486 20.9226L15.0151 17.7327L7.56034 23.8344C7.33857 23.998 6.82681 24.0143 6.60504 23.7526C6.36622 23.5072 6.50269 23.1473 6.70739 22.9183L13.3604 16.2768L6.43445 10.1914C6.12739 9.91331 5.82033 9.35712 6.38328 8.81729C6.94622 8.27746 7.52622 8.53919 8.00387 8.9318L18.6486 17.1765L29.3104 8.9318C29.7881 8.53919 30.3681 8.27746 30.931 8.81729Z" fill="#031B96"/>
</svg>
