<svg width="35" height="33" viewBox="0 0 35 33" fill="none" xmlns="http://www.w3.org/2000/svg">
<path d="M17.0588 15.677C16.1163 15.677 15.2123 15.318 14.5458 14.6788C13.8793 14.0397 13.5049 13.1729 13.5049 12.269C13.5049 11.3652 13.8793 10.4983 14.5458 9.85918C15.2123 9.22005 16.1163 8.861 17.0588 8.861C18.0014 8.861 18.9054 9.22005 19.5719 9.85918C20.2384 10.4983 20.6128 11.3652 20.6128 12.269C20.6128 12.7166 20.5209 13.1597 20.3423 13.5732C20.1637 13.9867 19.9019 14.3624 19.5719 14.6788C19.2418 14.9953 18.8501 15.2463 18.4189 15.4176C17.9877 15.5889 17.5256 15.677 17.0588 15.677ZM17.0588 2.72656C14.4197 2.72656 11.8886 3.73193 10.0224 5.52148C8.15623 7.31104 7.10782 9.7382 7.10782 12.269C7.10782 19.4259 17.0588 29.9907 17.0588 29.9907C17.0588 29.9907 27.0099 19.4259 27.0099 12.269C27.0099 9.7382 25.9615 7.31104 24.0953 5.52148C22.2291 3.73193 19.698 2.72656 17.0588 2.72656Z" fill="#031B96"/>
</svg>
