<svg width="149.868591" height="38.355011" viewBox="0 0 149.869 38.355" fill="none" xmlns="http://www.w3.org/2000/svg" xmlns:xlink="http://www.w3.org/1999/xlink">
	<desc>
			Created with Pixso.
	</desc>
	<defs/>
	<path id="LOGO" d="M17.9684 31.6579L3.36176 24.2808L0.752014 25.6008C0.525208 25.7156 0.335754 25.8858 0.203735 26.0933C0.0716553 26.3009 0.00195312 26.5381 0.00195312 26.7797C0.00195312 27.0214 0.0716553 27.2586 0.203735 27.4661C0.335754 27.6736 0.525208 27.8438 0.752014 27.9586L19.3247 37.3362C19.7457 37.5506 20.2562 37.5506 20.6772 37.3362L39.2498 27.9586C39.4766 27.8438 39.6661 27.6736 39.7981 27.4661C39.9302 27.2586 39.9999 27.0214 39.9999 26.7797C39.9999 26.5381 39.9302 26.3009 39.7981 26.0933C39.6661 25.8858 39.4766 25.7156 39.2498 25.6008L36.6401 24.2826L22.0334 31.6597C21.4086 31.9749 20.7101 32.1397 20.0007 32.1394C19.2912 32.1391 18.5929 31.9736 17.9684 31.6579Z" fill="#031B96" fill-opacity="1.000000" fill-rule="nonzero"/>
	<path id="LOGO" d="M3.36182 16.3307L17.9685 23.706C18.5931 24.0215 19.2916 24.1866 20.001 24.1866C20.7105 24.1866 21.4089 24.0215 22.0336 23.706L36.6402 16.3289L39.2499 17.649C39.4767 17.7637 39.6662 17.9339 39.7982 18.1415C39.9303 18.349 40 18.5862 40 18.8279C40 19.0695 39.9303 19.3067 39.7982 19.5143C39.6662 19.7218 39.4767 19.892 39.2499 20.0067L20.6772 29.3844C20.4694 29.4891 20.2371 29.5439 20.001 29.5439C19.765 29.5439 19.5327 29.4891 19.3248 29.3844L0.752136 20.0067C0.52533 19.892 0.335876 19.7218 0.203796 19.5143C0.0717773 19.3067 0.0020752 19.0695 0.0020752 18.8279C0.0020752 18.5862 0.0717773 18.349 0.203796 18.1415C0.335876 17.9339 0.52533 17.7637 0.752136 17.649L3.36182 16.3307Z" fill="#FA4F0F" fill-opacity="1.000000" fill-rule="nonzero"/>
	<path id="LOGO" d="M19.3209 0.320526C19.5292 0.215149 19.7623 0.160004 19.999 0.160004C20.2357 0.160004 20.4687 0.215149 20.6771 0.320526L39.2479 9.69727C39.4747 9.81204 39.6642 9.98221 39.7962 10.1897C39.9282 10.3972 39.998 10.6344 39.998 10.876C39.998 11.1177 39.9282 11.3548 39.7962 11.5624C39.6642 11.7699 39.4747 11.9401 39.2479 12.0548L20.6771 21.4315C20.4687 21.5369 20.2357 21.5921 19.999 21.5921C19.7623 21.5921 19.5292 21.5369 19.3209 21.4315L0.75 12.0548C0.523254 11.9401 0.333801 11.7699 0.201721 11.5624C0.0697021 11.3548 0 11.1177 0 10.876C0 10.6344 0.0697021 10.3972 0.201721 10.1897C0.333801 9.98221 0.523254 9.81204 0.75 9.69727L19.3209 0.320526Z" fill="#031B96" fill-opacity="1.000000" fill-rule="nonzero"/>
	<path id="LOGO" d="M134.664 0.360016L140.124 0.360016C142.234 0.360016 143.974 0.785004 145.344 1.63501C146.724 2.47501 147.754 3.64001 148.434 5.13C149.114 6.62 149.454 8.32501 149.454 10.245C149.454 12.175 149.114 13.885 148.434 15.375C147.754 16.865 146.724 18.035 145.344 18.885C143.974 19.735 142.234 20.16 140.124 20.16L134.664 20.16L134.664 0.360016ZM138.384 3.70499L138.384 16.815L139.794 16.815C141.084 16.815 142.144 16.535 142.974 15.975C143.814 15.405 144.439 14.625 144.849 13.635C145.269 12.645 145.479 11.525 145.479 10.275C145.489 9.01501 145.289 7.89001 144.879 6.89999C144.469 5.91 143.839 5.13 142.989 4.56C142.149 3.98999 141.084 3.70499 139.794 3.70499L138.384 3.70499Z" fill="#031B96" fill-opacity="1.000000" fill-rule="nonzero"/>
	<path id="LOGO" d="M118.501 4.005C118.591 3.67499 118.786 3.28 119.086 2.82001C119.386 2.36002 119.796 1.92001 120.316 1.5C120.846 1.07001 121.496 0.714996 122.266 0.434998C123.046 0.144989 123.956 0 124.996 0C126.256 0 127.356 0.234985 128.296 0.704987C129.246 1.16501 129.981 1.80499 130.501 2.625C131.031 3.44501 131.296 4.39001 131.296 5.45999C131.296 6.16 131.161 6.79999 130.891 7.38C130.631 7.95999 130.291 8.44 129.871 8.82001C129.461 9.20001 129.026 9.44 128.566 9.54001C129.076 9.60001 129.596 9.82501 130.126 10.215C130.656 10.605 131.101 11.13 131.461 11.79C131.821 12.45 132.001 13.235 132.001 14.145C132.001 15.375 131.696 16.47 131.086 17.43C130.486 18.39 129.651 19.145 128.581 19.695C127.521 20.245 126.301 20.52 124.921 20.52C123.521 20.52 122.326 20.275 121.336 19.785C120.356 19.295 119.571 18.695 118.981 17.985C118.401 17.275 118.011 16.59 117.811 15.93L121.246 14.205C121.376 14.645 121.596 15.1 121.906 15.57C122.226 16.04 122.636 16.44 123.136 16.77C123.646 17.09 124.236 17.25 124.906 17.25C125.616 17.25 126.221 17.11 126.721 16.83C127.221 16.55 127.606 16.17 127.876 15.69C128.146 15.2 128.281 14.645 128.281 14.025C128.281 13.375 128.121 12.835 127.801 12.405C127.491 11.975 127.081 11.66 126.571 11.46C126.061 11.25 125.506 11.145 124.906 11.145L124.516 11.145L124.516 8.41501L125.026 8.41501C125.546 8.41501 126.026 8.31 126.466 8.10001C126.906 7.88 127.256 7.57001 127.516 7.17001C127.776 6.76001 127.906 6.28 127.906 5.73001C127.906 4.98001 127.656 4.345 127.156 3.82501C126.656 3.30499 125.921 3.04501 124.951 3.04501C124.381 3.04501 123.886 3.14001 123.466 3.32999C123.056 3.51001 122.716 3.73999 122.446 4.01999C122.186 4.29001 121.981 4.56 121.831 4.82999C121.691 5.09 121.606 5.29999 121.576 5.45999L118.501 4.005Z" fill="#031B96" fill-opacity="1.000000" fill-rule="nonzero"/>
	<path id="LOGO" d="M101.685 20.52C100.375 20.52 99.2048 20.24 98.1748 19.68C97.1548 19.12 96.3548 18.355 95.7748 17.385C95.1948 16.405 94.9048 15.29 94.9048 14.04C94.9048 12.79 95.1948 11.675 95.7748 10.695C96.3548 9.70502 97.1548 8.92499 98.1748 8.35501C99.2048 7.77499 100.375 7.48502 101.685 7.48502C103.005 7.48502 104.17 7.77499 105.18 8.35501C106.19 8.92499 106.98 9.70502 107.55 10.695C108.12 11.675 108.405 12.79 108.405 14.04C108.405 15.29 108.12 16.405 107.55 17.385C106.98 18.355 106.19 19.12 105.18 19.68C104.17 20.24 103.005 20.52 101.685 20.52ZM101.685 17.355C102.315 17.355 102.86 17.215 103.32 16.935C103.79 16.645 104.15 16.25 104.4 15.75C104.66 15.24 104.79 14.665 104.79 14.025C104.79 13.385 104.66 12.81 104.4 12.3C104.15 11.79 103.79 11.39 103.32 11.1C102.86 10.8 102.315 10.65 101.685 10.65C101.055 10.65 100.505 10.8 100.035 11.1C99.5748 11.39 99.2148 11.79 98.9548 12.3C98.6948 12.81 98.5648 13.385 98.5648 14.025C98.5648 14.665 98.6948 15.24 98.9548 15.75C99.2148 16.25 99.5748 16.645 100.035 16.935C100.505 17.215 101.055 17.355 101.685 17.355Z" fill="#031B96" fill-opacity="1.000000" fill-rule="nonzero"/>
	<path id="LOGO" d="M85.2684 26.745C84.3684 26.745 83.5034 26.66 82.6734 26.49C81.8535 26.32 81.1084 26.055 80.4384 25.695C79.7684 25.335 79.2084 24.865 78.7584 24.285L81.0684 21.945C81.2784 22.215 81.5484 22.485 81.8784 22.755C82.2184 23.035 82.6484 23.265 83.1684 23.445C83.6884 23.635 84.3384 23.73 85.1184 23.73C85.8584 23.73 86.4934 23.585 87.0234 23.295C87.5634 23.015 87.9784 22.615 88.2684 22.095C88.5684 21.575 88.7184 20.97 88.7184 20.28L88.7184 19.935L92.4534 19.935L92.4534 20.505C92.4534 21.865 92.1334 23.01 91.4934 23.94C90.8535 24.87 89.9934 25.57 88.9135 26.04C87.8334 26.51 86.6184 26.745 85.2684 26.745ZM88.7184 20.16L88.7184 18.015C88.6284 18.235 88.3984 18.545 88.0284 18.945C87.6584 19.345 87.1584 19.71 86.5284 20.04C85.9084 20.36 85.1784 20.52 84.3384 20.52C83.1584 20.52 82.1134 20.24 81.2034 19.68C80.2934 19.11 79.5784 18.335 79.0584 17.355C78.5484 16.365 78.2934 15.25 78.2934 14.01C78.2934 12.77 78.5484 11.66 79.0584 10.68C79.5784 9.69 80.2934 8.91 81.2034 8.34C82.1134 7.76999 83.1584 7.48502 84.3384 7.48502C85.1584 7.48502 85.8684 7.625 86.4684 7.905C87.0784 8.17499 87.5684 8.495 87.9384 8.86499C88.3184 9.22501 88.5634 9.54999 88.6734 9.84L88.6734 7.845L92.4534 7.845L92.4534 20.16L88.7184 20.16ZM82.0284 14.01C82.0284 14.7 82.1834 15.31 82.4934 15.84C82.8034 16.36 83.2134 16.765 83.7234 17.055C84.2334 17.345 84.7885 17.49 85.3884 17.49C86.0184 17.49 86.5784 17.345 87.0684 17.055C87.5584 16.755 87.9434 16.345 88.2234 15.825C88.5134 15.295 88.6584 14.69 88.6584 14.01C88.6584 13.33 88.5134 12.73 88.2234 12.21C87.9434 11.68 87.5584 11.265 87.0684 10.965C86.5784 10.665 86.0184 10.515 85.3884 10.515C84.7885 10.515 84.2334 10.665 83.7234 10.965C83.2134 11.255 82.8034 11.665 82.4934 12.195C82.1834 12.715 82.0284 13.32 82.0284 14.01Z" fill="#031B96" fill-opacity="1.000000" fill-rule="nonzero"/>
	<path id="LOGO" d="M69.7512 20.52C68.4412 20.52 67.2712 20.24 66.2412 19.68C65.2212 19.12 64.4212 18.355 63.8412 17.385C63.2612 16.405 62.9712 15.29 62.9712 14.04C62.9712 12.79 63.2612 11.675 63.8412 10.695C64.4212 9.70502 65.2212 8.92499 66.2412 8.35501C67.2712 7.77499 68.4412 7.48502 69.7512 7.48502C71.0712 7.48502 72.2362 7.77499 73.2462 8.35501C74.2562 8.92499 75.0462 9.70502 75.6162 10.695C76.1862 11.675 76.4712 12.79 76.4712 14.04C76.4712 15.29 76.1862 16.405 75.6162 17.385C75.0462 18.355 74.2562 19.12 73.2462 19.68C72.2362 20.24 71.0712 20.52 69.7512 20.52ZM69.7512 17.355C70.3812 17.355 70.9262 17.215 71.3862 16.935C71.8562 16.645 72.2162 16.25 72.4662 15.75C72.7262 15.24 72.8562 14.665 72.8562 14.025C72.8562 13.385 72.7262 12.81 72.4662 12.3C72.2162 11.79 71.8562 11.39 71.3862 11.1C70.9262 10.8 70.3812 10.65 69.7512 10.65C69.1212 10.65 68.5712 10.8 68.1012 11.1C67.6412 11.39 67.2812 11.79 67.0212 12.3C66.7612 12.81 66.6312 13.385 66.6312 14.025C66.6312 14.665 66.7612 15.24 67.0212 15.75C67.2812 16.25 67.6412 16.645 68.1012 16.935C68.5712 17.215 69.1212 17.355 69.7512 17.355Z" fill="#031B96" fill-opacity="1.000000" fill-rule="nonzero"/>
	<path id="LOGO" d="M49.47 0.360016L53.22 0.360016L53.22 16.845L60.645 16.845L60.645 20.16L49.47 20.16L49.47 0.360016Z" fill="#031B96" fill-opacity="1.000000" fill-rule="nonzero"/>
	<path id="LOGO" d="M147.474 38.355C147.174 38.355 146.885 38.3267 146.609 38.27C146.335 38.2133 146.087 38.125 145.864 38.005C145.64 37.885 145.454 37.7283 145.304 37.535L146.074 36.755C146.144 36.845 146.234 36.935 146.344 37.025C146.457 37.1183 146.6 37.195 146.774 37.255C146.947 37.3183 147.164 37.35 147.424 37.35C147.67 37.35 147.882 37.3017 148.059 37.205C148.239 37.1117 148.377 36.9783 148.474 36.805C148.574 36.6317 148.624 36.43 148.624 36.2L148.624 36.085L149.869 36.085L149.869 36.275C149.869 36.7283 149.762 37.11 149.549 37.42C149.335 37.73 149.049 37.9633 148.689 38.12C148.329 38.2767 147.924 38.355 147.474 38.355ZM148.624 36.16L148.624 35.445C148.594 35.5183 148.517 35.6217 148.394 35.755C148.27 35.8883 148.104 36.01 147.894 36.12C147.687 36.2267 147.444 36.28 147.164 36.28C146.77 36.28 146.422 36.1867 146.119 36C145.815 35.81 145.577 35.5517 145.404 35.225C145.234 34.895 145.149 34.5233 145.149 34.11C145.149 33.6967 145.234 33.3267 145.404 33C145.577 32.67 145.815 32.41 146.119 32.22C146.422 32.03 146.77 31.935 147.164 31.935C147.437 31.935 147.674 31.9817 147.874 32.075C148.077 32.165 148.24 32.2717 148.364 32.395C148.49 32.515 148.572 32.6234 148.609 32.72L148.609 32.055L149.869 32.055L149.869 36.16L148.624 36.16ZM146.394 34.11C146.394 34.34 146.445 34.5433 146.549 34.72C146.652 34.8933 146.789 35.0283 146.959 35.125C147.129 35.2217 147.314 35.27 147.514 35.27C147.724 35.27 147.91 35.2217 148.074 35.125C148.237 35.025 148.365 34.8883 148.459 34.715C148.555 34.5383 148.604 34.3367 148.604 34.11C148.604 33.8833 148.555 33.6833 148.459 33.51C148.365 33.3333 148.237 33.195 148.074 33.095C147.91 32.995 147.724 32.945 147.514 32.945C147.314 32.945 147.129 32.995 146.959 33.095C146.789 33.1917 146.652 33.3283 146.549 33.505C146.445 33.6783 146.394 33.88 146.394 34.11Z" fill="#031B96" fill-opacity="1.000000" fill-rule="nonzero"/>
	<path id="LOGO" d="M142.672 31.935C142.952 31.935 143.225 31.9933 143.492 32.11C143.758 32.2233 143.977 32.405 144.147 32.655C144.32 32.905 144.407 33.2317 144.407 33.635L144.407 36.16L143.132 36.16L143.132 33.855C143.132 33.5183 143.052 33.2683 142.892 33.105C142.735 32.9417 142.528 32.86 142.272 32.86C142.105 32.86 141.945 32.9067 141.792 33C141.642 33.09 141.518 33.2167 141.422 33.38C141.328 33.54 141.282 33.7233 141.282 33.93L141.282 36.16L140.012 36.16L140.012 32.055L141.282 32.055L141.282 32.71C141.318 32.5967 141.402 32.48 141.532 32.36C141.662 32.24 141.827 32.14 142.027 32.06C142.227 31.9767 142.442 31.935 142.672 31.935Z" fill="#031B96" fill-opacity="1.000000" fill-rule="nonzero"/>
	<path id="LOGO" d="M137.632 36.16L137.632 32.055L138.897 32.055L138.897 36.16L137.632 36.16ZM138.282 30.995C138.072 30.995 137.893 30.9217 137.747 30.775C137.603 30.6283 137.532 30.4533 137.532 30.25C137.532 30.0467 137.605 29.87 137.752 29.72C137.898 29.57 138.075 29.495 138.282 29.495C138.418 29.495 138.543 29.53 138.657 29.6C138.77 29.6667 138.862 29.7567 138.932 29.87C139.002 29.9833 139.037 30.11 139.037 30.25C139.037 30.4533 138.962 30.6283 138.812 30.775C138.665 30.9217 138.488 30.995 138.282 30.995Z" fill="#031B96" fill-opacity="1.000000" fill-rule="nonzero"/>
	<path id="LOGO" d="M133.706 32.055L134.446 32.055L134.446 30.37L135.706 30.37L135.706 32.055L136.676 32.055L136.676 33.11L135.706 33.11L135.706 34.595C135.706 34.7917 135.737 34.945 135.801 35.055C135.864 35.1617 135.964 35.215 136.101 35.215C136.204 35.215 136.289 35.195 136.356 35.155C136.422 35.1117 136.462 35.0817 136.476 35.065L136.926 35.975C136.906 35.995 136.841 36.03 136.731 36.08C136.624 36.13 136.486 36.175 136.316 36.215C136.149 36.2583 135.961 36.28 135.751 36.28C135.374 36.28 135.062 36.1717 134.816 35.955C134.569 35.735 134.446 35.395 134.446 34.935L134.446 33.11L133.706 33.11L133.706 32.055Z" fill="#031B96" fill-opacity="1.000000" fill-rule="nonzero"/>
	<path id="LOGO" d="M131.334 31.935C131.614 31.935 131.887 31.9933 132.154 32.11C132.421 32.2233 132.639 32.405 132.809 32.655C132.982 32.905 133.069 33.2317 133.069 33.635L133.069 36.16L131.794 36.16L131.794 33.855C131.794 33.5183 131.714 33.2683 131.554 33.105C131.397 32.9417 131.191 32.86 130.934 32.86C130.767 32.86 130.607 32.9067 130.454 33C130.304 33.09 130.181 33.2167 130.084 33.38C129.991 33.54 129.944 33.7233 129.944 33.93L129.944 36.16L128.674 36.16L128.674 32.055L129.944 32.055L129.944 32.71C129.981 32.5967 130.064 32.48 130.194 32.36C130.324 32.24 130.489 32.14 130.689 32.06C130.889 31.9767 131.104 31.935 131.334 31.935Z" fill="#031B96" fill-opacity="1.000000" fill-rule="nonzero"/>
	<path id="LOGO" d="M126.294 36.16L126.294 32.055L127.559 32.055L127.559 36.16L126.294 36.16ZM126.944 30.995C126.734 30.995 126.555 30.9217 126.409 30.775C126.265 30.6283 126.194 30.4533 126.194 30.25C126.194 30.0467 126.267 29.87 126.414 29.72C126.56 29.57 126.737 29.495 126.944 29.495C127.08 29.495 127.205 29.53 127.319 29.6C127.432 29.6667 127.524 29.7567 127.594 29.87C127.664 29.9833 127.699 30.11 127.699 30.25C127.699 30.4533 127.624 30.6283 127.474 30.775C127.327 30.9217 127.15 30.995 126.944 30.995Z" fill="#031B96" fill-opacity="1.000000" fill-rule="nonzero"/>
	<path id="LOGO" d="M123.62 36.16L122.35 36.16L122.35 32.055L123.62 32.055L123.62 32.72L123.595 32.72C123.618 32.64 123.681 32.5383 123.785 32.415C123.891 32.2917 124.038 32.1817 124.225 32.085C124.411 31.985 124.636 31.935 124.9 31.935C125.09 31.935 125.261 31.9633 125.415 32.02C125.571 32.0733 125.683 32.1267 125.75 32.18L125.25 33.22C125.206 33.1667 125.125 33.1117 125.005 33.055C124.888 32.9984 124.741 32.97 124.565 32.97C124.355 32.97 124.18 33.0284 124.04 33.145C123.9 33.2583 123.795 33.3983 123.725 33.565C123.655 33.7283 123.62 33.8817 123.62 34.025L123.62 36.16Z" fill="#031B96" fill-opacity="1.000000" fill-rule="nonzero"/>
	<path id="LOGO" d="M118.148 38.24L116.888 38.24L116.888 32.055L118.163 32.055L118.163 32.72C118.203 32.6234 118.289 32.5133 118.423 32.39C118.556 32.2667 118.729 32.16 118.943 32.07C119.159 31.98 119.406 31.935 119.683 31.935C120.073 31.935 120.413 32.03 120.703 32.22C120.993 32.41 121.216 32.67 121.373 33C121.533 33.3267 121.613 33.6967 121.613 34.11C121.613 34.5233 121.529 34.895 121.363 35.225C121.196 35.5517 120.964 35.81 120.668 36C120.371 36.1867 120.026 36.28 119.633 36.28C119.336 36.28 119.081 36.2267 118.868 36.12C118.654 36.0133 118.488 35.8933 118.368 35.76C118.248 35.6267 118.174 35.5217 118.148 35.445L118.148 38.24ZM120.368 34.11C120.368 33.88 120.318 33.6783 120.218 33.505C120.121 33.3283 119.991 33.1917 119.828 33.095C119.664 32.995 119.483 32.945 119.283 32.945C119.073 32.945 118.883 32.995 118.713 33.095C118.543 33.195 118.408 33.3333 118.308 33.51C118.211 33.6833 118.163 33.8833 118.163 34.11C118.163 34.3367 118.211 34.5383 118.308 34.715C118.408 34.8883 118.543 35.025 118.713 35.125C118.883 35.2217 119.073 35.27 119.283 35.27C119.483 35.27 119.664 35.2217 119.828 35.125C119.991 35.0283 120.121 34.8933 120.218 34.72C120.318 34.5433 120.368 34.34 120.368 34.11Z" fill="#031B96" fill-opacity="1.000000" fill-rule="nonzero"/>
	<path id="LOGO" d="M111.578 31.935C111.858 31.935 112.131 31.9933 112.398 32.11C112.665 32.2233 112.883 32.405 113.053 32.655C113.226 32.905 113.313 33.2317 113.313 33.635L113.313 36.16L112.038 36.16L112.038 33.855C112.038 33.5183 111.958 33.2683 111.798 33.105C111.641 32.9417 111.435 32.86 111.178 32.86C111.011 32.86 110.851 32.9067 110.698 33C110.548 33.09 110.425 33.2167 110.328 33.38C110.235 33.54 110.188 33.7233 110.188 33.93L110.188 36.16L108.918 36.16L108.918 32.055L110.188 32.055L110.188 32.71C110.225 32.5967 110.308 32.48 110.438 32.36C110.568 32.24 110.733 32.14 110.933 32.06C111.133 31.9767 111.348 31.935 111.578 31.935Z" fill="#031B96" fill-opacity="1.000000" fill-rule="nonzero"/>
	<path id="LOGO" d="M105.866 36.28C105.429 36.28 105.039 36.1867 104.696 36C104.356 35.8133 104.089 35.5583 103.896 35.235C103.702 34.9083 103.606 34.5367 103.606 34.12C103.606 33.7033 103.702 33.3317 103.896 33.005C104.089 32.675 104.356 32.415 104.696 32.225C105.039 32.0317 105.429 31.935 105.866 31.935C106.306 31.935 106.694 32.0317 107.031 32.225C107.367 32.415 107.631 32.675 107.821 33.005C108.011 33.3317 108.106 33.7033 108.106 34.12C108.106 34.5367 108.011 34.9083 107.821 35.235C107.631 35.5583 107.367 35.8133 107.031 36C106.694 36.1867 106.306 36.28 105.866 36.28ZM105.866 35.225C106.076 35.225 106.257 35.1783 106.411 35.085C106.567 34.9883 106.687 34.8567 106.771 34.69C106.857 34.52 106.901 34.3283 106.901 34.115C106.901 33.9017 106.857 33.71 106.771 33.54C106.687 33.37 106.567 33.2367 106.411 33.14C106.257 33.04 106.076 32.99 105.866 32.99C105.656 32.99 105.472 33.04 105.316 33.14C105.162 33.2367 105.042 33.37 104.956 33.54C104.869 33.71 104.826 33.9017 104.826 34.115C104.826 34.3283 104.869 34.52 104.956 34.69C105.042 34.8567 105.162 34.9883 105.316 35.085C105.472 35.1783 105.656 35.225 105.866 35.225Z" fill="#031B96" fill-opacity="1.000000" fill-rule="nonzero"/>
	<path id="LOGO" d="M101.43 36.16L101.43 32.055L102.695 32.055L102.695 36.16L101.43 36.16ZM102.08 30.995C101.87 30.995 101.692 30.9217 101.545 30.775C101.402 30.6283 101.33 30.4533 101.33 30.25C101.33 30.0467 101.404 29.87 101.55 29.72C101.697 29.57 101.874 29.495 102.08 29.495C102.217 29.495 102.342 29.53 102.455 29.6C102.569 29.6667 102.66 29.7567 102.73 29.87C102.8 29.9833 102.835 30.11 102.835 30.25C102.835 30.4533 102.76 30.6283 102.61 30.775C102.464 30.9217 102.287 30.995 102.08 30.995Z" fill="#031B96" fill-opacity="1.000000" fill-rule="nonzero"/>
	<path id="LOGO" d="M97.5045 32.055L98.2445 32.055L98.2445 30.37L99.5045 30.37L99.5045 32.055L100.475 32.055L100.475 33.11L99.5045 33.11L99.5045 34.595C99.5045 34.7917 99.5362 34.945 99.5995 35.055C99.6629 35.1617 99.7629 35.215 99.8995 35.215C100.003 35.215 100.088 35.195 100.155 35.155C100.221 35.1117 100.261 35.0817 100.275 35.065L100.725 35.975C100.705 35.995 100.64 36.03 100.53 36.08C100.423 36.13 100.285 36.175 100.115 36.215C99.9479 36.2583 99.7595 36.28 99.5495 36.28C99.1729 36.28 98.8612 36.1717 98.6145 35.955C98.3679 35.735 98.2445 35.395 98.2445 34.935L98.2445 33.11L97.5045 33.11L97.5045 32.055Z" fill="#031B96" fill-opacity="1.000000" fill-rule="nonzero"/>
	<path id="LOGO" d="M95.7899 35.27C96.0065 35.27 96.1832 35.2333 96.3198 35.16C96.4565 35.0867 96.5465 35.0317 96.5898 34.995L97.1798 35.87C97.1332 35.9067 97.0465 35.9583 96.9199 36.025C96.7932 36.0917 96.6315 36.15 96.4348 36.2C96.2415 36.2533 96.0198 36.28 95.7698 36.28C95.3365 36.28 94.9482 36.1933 94.6049 36.02C94.2615 35.8433 93.9898 35.5933 93.7899 35.27C93.5932 34.9433 93.4948 34.555 93.4948 34.105C93.4948 33.6517 93.5932 33.2633 93.7899 32.94C93.9898 32.6167 94.2615 32.3683 94.6049 32.195C94.9482 32.0217 95.3365 31.935 95.7698 31.935C96.0165 31.935 96.2348 31.9617 96.4248 32.015C96.6182 32.0683 96.7798 32.13 96.9099 32.2C97.0399 32.2667 97.1298 32.3217 97.1798 32.365L96.5748 33.245C96.5515 33.2183 96.5065 33.1817 96.4398 33.135C96.3732 33.0883 96.2849 33.045 96.1748 33.005C96.0682 32.965 95.9398 32.945 95.7899 32.945C95.6065 32.945 95.4315 32.9933 95.2648 33.09C95.1015 33.1867 94.9682 33.3217 94.8648 33.495C94.7615 33.6683 94.7098 33.8717 94.7098 34.105C94.7098 34.3383 94.7615 34.5433 94.8648 34.72C94.9682 34.8933 95.1015 35.0283 95.2648 35.125C95.4315 35.2217 95.6065 35.27 95.7899 35.27Z" fill="#031B96" fill-opacity="1.000000" fill-rule="nonzero"/>
	<path id="LOGO" d="M89.5331 34.02C89.5331 34.3867 89.6064 34.68 89.7531 34.9C89.8997 35.1167 90.1364 35.225 90.463 35.225C90.793 35.225 91.0314 35.1167 91.178 34.9C91.3247 34.68 91.398 34.3867 91.398 34.02L91.398 32.055L92.648 32.055L92.648 34.165C92.648 34.5883 92.563 34.96 92.3931 35.28C92.2231 35.5967 91.9747 35.8433 91.648 36.02C91.3247 36.1933 90.9297 36.28 90.463 36.28C89.9997 36.28 89.6047 36.1933 89.278 36.02C88.9547 35.8433 88.708 35.5967 88.5381 35.28C88.368 34.96 88.2831 34.5883 88.2831 34.165L88.2831 32.055L89.5331 32.055L89.5331 34.02Z" fill="#031B96" fill-opacity="1.000000" fill-rule="nonzero"/>
	<path id="LOGO" d="M85.729 36.16L84.459 36.16L84.459 32.055L85.729 32.055L85.729 32.72L85.704 32.72C85.7273 32.64 85.7906 32.5383 85.894 32.415C86.0006 32.2917 86.1473 32.1817 86.334 32.085C86.5207 31.985 86.7457 31.935 87.009 31.935C87.199 31.935 87.3707 31.9633 87.524 32.02C87.6807 32.0733 87.7923 32.1267 87.859 32.18L87.359 33.22C87.3156 33.1667 87.234 33.1117 87.114 33.055C86.9973 32.9984 86.8506 32.97 86.674 32.97C86.464 32.97 86.289 33.0284 86.149 33.145C86.009 33.2583 85.904 33.3983 85.834 33.565C85.764 33.7283 85.729 33.8817 85.729 34.025L85.729 36.16Z" fill="#031B96" fill-opacity="1.000000" fill-rule="nonzero"/>
	<path id="LOGO" d="M80.6881 32.055L81.4281 32.055L81.4281 30.37L82.6881 30.37L82.6881 32.055L83.6581 32.055L83.6581 33.11L82.6881 33.11L82.6881 34.595C82.6881 34.7917 82.7198 34.945 82.7831 35.055C82.8465 35.1617 82.9465 35.215 83.0831 35.215C83.1865 35.215 83.2715 35.195 83.3381 35.155C83.4048 35.1117 83.4448 35.0817 83.4581 35.065L83.9081 35.975C83.8881 35.995 83.8231 36.03 83.7131 36.08C83.6064 36.13 83.4681 36.175 83.2981 36.215C83.1315 36.2583 82.9431 36.28 82.7331 36.28C82.3564 36.28 82.0448 36.1717 81.7981 35.955C81.5515 35.735 81.4281 35.395 81.4281 34.935L81.4281 33.11L80.6881 33.11L80.6881 32.055Z" fill="#031B96" fill-opacity="1.000000" fill-rule="nonzero"/>
	<path id="LOGO" d="M78.6323 31.935C78.8789 31.935 79.1073 31.9583 79.3173 32.005C79.5273 32.0483 79.7039 32.0983 79.8473 32.155C79.9939 32.2117 80.0906 32.26 80.1373 32.3L79.7023 33.065C79.6356 33.0117 79.5156 32.9483 79.3423 32.875C79.1723 32.8017 78.9823 32.765 78.7723 32.765C78.5823 32.765 78.4223 32.7983 78.2923 32.865C78.1623 32.9283 78.0973 33.025 78.0973 33.155C78.0973 33.285 78.1673 33.3883 78.3073 33.465C78.4473 33.5417 78.6423 33.6083 78.8923 33.665C79.1023 33.7083 79.3089 33.775 79.5123 33.865C79.7156 33.9517 79.8839 34.0783 80.0173 34.245C80.1506 34.4083 80.2173 34.6267 80.2173 34.9C80.2173 35.17 80.1589 35.395 80.0423 35.575C79.9289 35.7517 79.7773 35.8917 79.5873 35.995C79.3973 36.0983 79.1889 36.1717 78.9623 36.215C78.7356 36.2583 78.5106 36.28 78.2873 36.28C77.9973 36.28 77.7422 36.2517 77.5223 36.195C77.3022 36.1417 77.1206 36.08 76.9773 36.01C76.8373 35.9367 76.7372 35.875 76.6772 35.825L77.1123 34.975C77.1989 35.0517 77.3406 35.1367 77.5373 35.23C77.7372 35.32 77.9523 35.365 78.1823 35.365C78.4223 35.365 78.6106 35.3233 78.7473 35.24C78.8873 35.1567 78.9573 35.045 78.9573 34.905C78.9573 34.8017 78.9239 34.7183 78.8573 34.655C78.7906 34.5883 78.6989 34.5333 78.5823 34.49C78.4656 34.4467 78.3289 34.4083 78.1723 34.375C78.0289 34.345 77.8823 34.3017 77.7323 34.245C77.5823 34.185 77.4423 34.1067 77.3123 34.01C77.1823 33.9133 77.0773 33.7933 76.9973 33.65C76.9173 33.5033 76.8773 33.3283 76.8773 33.125C76.8773 32.865 76.9606 32.6483 77.1273 32.475C77.2939 32.2983 77.5106 32.165 77.7773 32.075C78.0439 31.9817 78.3289 31.935 78.6323 31.935Z" fill="#031B96" fill-opacity="1.000000" fill-rule="nonzero"/>
	<path id="LOGO" d="M74.1855 31.935C74.4655 31.935 74.7388 31.9933 75.0055 32.11C75.2721 32.2233 75.4905 32.405 75.6605 32.655C75.8338 32.905 75.9205 33.2317 75.9205 33.635L75.9205 36.16L74.6455 36.16L74.6455 33.855C74.6455 33.5183 74.5655 33.2683 74.4055 33.105C74.2488 32.9417 74.0421 32.86 73.7855 32.86C73.6188 32.86 73.4588 32.9067 73.3055 33C73.1555 33.09 73.0321 33.2167 72.9355 33.38C72.8421 33.54 72.7955 33.7233 72.7955 33.93L72.7955 36.16L71.5255 36.16L71.5255 32.055L72.7955 32.055L72.7955 32.71C72.8322 32.5967 72.9155 32.48 73.0455 32.36C73.1755 32.24 73.3405 32.14 73.5405 32.06C73.7405 31.9767 73.9555 31.935 74.1855 31.935Z" fill="#031B96" fill-opacity="1.000000" fill-rule="nonzero"/>
	<path id="LOGO" d="M68.4731 36.28C68.0364 36.28 67.6464 36.1867 67.303 36C66.963 35.8133 66.6964 35.5583 66.5031 35.235C66.3097 34.9083 66.213 34.5367 66.213 34.12C66.213 33.7033 66.3097 33.3317 66.5031 33.005C66.6964 32.675 66.963 32.415 67.303 32.225C67.6464 32.0317 68.0364 31.935 68.4731 31.935C68.9131 31.935 69.3014 32.0317 69.6381 32.225C69.9747 32.415 70.238 32.675 70.428 33.005C70.618 33.3317 70.713 33.7033 70.713 34.12C70.713 34.5367 70.618 34.9083 70.428 35.235C70.238 35.5583 69.9747 35.8133 69.6381 36C69.3014 36.1867 68.9131 36.28 68.4731 36.28ZM68.4731 35.225C68.683 35.225 68.8647 35.1783 69.018 35.085C69.1747 34.9883 69.2947 34.8567 69.3781 34.69C69.4647 34.52 69.5081 34.3283 69.5081 34.115C69.5081 33.9017 69.4647 33.71 69.3781 33.54C69.2947 33.37 69.1747 33.2367 69.018 33.14C68.8647 33.04 68.683 32.99 68.4731 32.99C68.2631 32.99 68.0797 33.04 67.923 33.14C67.7697 33.2367 67.6497 33.37 67.563 33.54C67.4764 33.71 67.433 33.9017 67.433 34.115C67.433 34.3283 67.4764 34.52 67.563 34.69C67.6497 34.8567 67.7697 34.9883 67.923 35.085C68.0797 35.1783 68.2631 35.225 68.4731 35.225Z" fill="#031B96" fill-opacity="1.000000" fill-rule="nonzero"/>
	<path id="LOGO" d="M64.3543 35.27C64.571 35.27 64.7476 35.2333 64.8843 35.16C65.021 35.0867 65.111 35.0317 65.1543 34.995L65.7443 35.87C65.6976 35.9067 65.611 35.9583 65.4843 36.025C65.3576 36.0917 65.196 36.15 64.9993 36.2C64.806 36.2533 64.5843 36.28 64.3343 36.28C63.901 36.28 63.5126 36.1933 63.1693 36.02C62.826 35.8433 62.5543 35.5933 62.3543 35.27C62.1576 34.9433 62.0593 34.555 62.0593 34.105C62.0593 33.6517 62.1576 33.2633 62.3543 32.94C62.5543 32.6167 62.826 32.3683 63.1693 32.195C63.5126 32.0217 63.901 31.935 64.3343 31.935C64.581 31.935 64.7993 31.9617 64.9893 32.015C65.1826 32.0683 65.3443 32.13 65.4743 32.2C65.6043 32.2667 65.6943 32.3217 65.7443 32.365L65.1393 33.245C65.116 33.2183 65.071 33.1817 65.0043 33.135C64.9376 33.0883 64.8493 33.045 64.7393 33.005C64.6326 32.965 64.5043 32.945 64.3543 32.945C64.171 32.945 63.996 32.9933 63.8293 33.09C63.666 33.1867 63.5326 33.3217 63.4293 33.495C63.326 33.6683 63.2743 33.8717 63.2743 34.105C63.2743 34.3383 63.326 34.5433 63.4293 34.72C63.5326 34.8933 63.666 35.0283 63.8293 35.125C63.996 35.2217 64.171 35.27 64.3543 35.27Z" fill="#031B96" fill-opacity="1.000000" fill-rule="nonzero"/>
	<path id="LOGO" d="M53.7727 29.56L55.5927 29.56C56.2961 29.56 56.8761 29.7017 57.3327 29.985C57.7927 30.265 58.1361 30.6533 58.3627 31.15C58.5894 31.6467 58.7027 32.215 58.7027 32.855C58.7027 33.4984 58.5894 34.0683 58.3627 34.565C58.1361 35.0617 57.7927 35.4517 57.3327 35.735C56.8761 36.0183 56.2961 36.16 55.5927 36.16L53.7727 36.16L53.7727 29.56ZM55.0127 30.675L55.0127 35.045L55.4827 35.045C55.9127 35.045 56.2661 34.9517 56.5427 34.765C56.8227 34.575 57.0311 34.315 57.1677 33.985C57.3077 33.655 57.3777 33.2817 57.3777 32.865C57.3811 32.445 57.3144 32.07 57.1777 31.74C57.0411 31.41 56.8311 31.15 56.5477 30.96C56.2677 30.77 55.9127 30.675 55.4827 30.675L55.0127 30.675Z" fill="#031B96" fill-opacity="1.000000" fill-rule="nonzero"/>
	<path id="LOGO" d="M48.385 30.775C48.415 30.665 48.48 30.5333 48.58 30.38C48.68 30.2267 48.8167 30.08 48.99 29.94C49.1667 29.7967 49.3833 29.6783 49.64 29.585C49.9 29.4883 50.2033 29.44 50.55 29.44C50.97 29.44 51.3367 29.5183 51.65 29.675C51.9667 29.8283 52.2117 30.0417 52.385 30.315C52.5617 30.5883 52.65 30.9033 52.65 31.26C52.65 31.4933 52.605 31.7067 52.515 31.9C52.4283 32.0933 52.315 32.2533 52.175 32.38C52.0383 32.5067 51.8933 32.5867 51.74 32.62C51.91 32.64 52.0833 32.715 52.26 32.845C52.4367 32.975 52.585 33.15 52.705 33.37C52.825 33.59 52.885 33.8517 52.885 34.155C52.885 34.565 52.7833 34.93 52.58 35.25C52.38 35.57 52.1017 35.8217 51.745 36.005C51.3917 36.1883 50.985 36.28 50.525 36.28C50.0583 36.28 49.66 36.1983 49.33 36.035C49.0033 35.8717 48.7417 35.6717 48.545 35.435C48.3517 35.1983 48.2217 34.97 48.155 34.75L49.3 34.175C49.3433 34.3217 49.4167 34.4733 49.52 34.63C49.6267 34.7867 49.7633 34.92 49.93 35.03C50.1 35.1367 50.2967 35.19 50.52 35.19C50.7567 35.19 50.9583 35.1433 51.125 35.05C51.2917 34.9567 51.42 34.83 51.51 34.67C51.6 34.5067 51.645 34.3217 51.645 34.115C51.645 33.8983 51.5917 33.7183 51.485 33.575C51.3817 33.4317 51.245 33.3267 51.075 33.26C50.905 33.19 50.72 33.155 50.52 33.155L50.39 33.155L50.39 32.245L50.56 32.245C50.7333 32.245 50.8933 32.21 51.04 32.14C51.1867 32.0667 51.3033 31.9633 51.39 31.83C51.4767 31.6933 51.52 31.5333 51.52 31.35C51.52 31.1 51.4367 30.8883 51.27 30.715C51.1033 30.5417 50.8583 30.455 50.535 30.455C50.345 30.455 50.18 30.4867 50.04 30.55C49.9033 30.61 49.79 30.6867 49.7 30.78C49.6133 30.87 49.545 30.96 49.495 31.05C49.4483 31.1367 49.42 31.2067 49.41 31.26L48.385 30.775Z" fill="#031B96" fill-opacity="1.000000" fill-rule="nonzero"/>
</svg>
