<svg width="20" height="32" viewBox="0 0 20 32" fill="none" xmlns="http://www.w3.org/2000/svg">
<path d="M16.9999 0H2.99994C1.34369 0 -6.10352e-05 1.34375 -6.10352e-05 3V29C-6.10352e-05 30.6562 1.34369 32 2.99994 32H16.9999C18.6562 32 19.9999 30.6562 19.9999 29V3C19.9999 1.34375 18.6562 0 16.9999 0ZM9.99994 30C8.89369 30 7.99994 29.1063 7.99994 28C7.99994 26.8937 8.89369 26 9.99994 26C11.1062 26 11.9999 26.8937 11.9999 28C11.9999 29.1063 11.1062 30 9.99994 30ZM16.9999 23.25C16.9999 23.6625 16.6624 24 16.2499 24H3.74994C3.33744 24 2.99994 23.6625 2.99994 23.25V3.75C2.99994 3.3375 3.33744 3 3.74994 3H16.2499C16.6624 3 16.9999 3.3375 16.9999 3.75V23.25Z" fill="#031B96"/>
</svg>
