<svg width="39" height="36" viewBox="0 0 39 36" fill="none" xmlns="http://www.w3.org/2000/svg">
<ellipse cx="19.2578" cy="17.8853" rx="19" ry="17.8853" fill="#DEE3FE"/>
<path fill-rule="evenodd" clip-rule="evenodd" d="M13.4661 5.96625C13.5464 5.8789 13.6417 5.80959 13.7466 5.7623C13.8515 5.71502 13.964 5.69067 14.0776 5.69067C14.1912 5.69067 14.3037 5.71502 14.4086 5.7623C14.5135 5.80959 14.6088 5.8789 14.689 5.96625L25.0527 17.2226C25.1331 17.3097 25.1969 17.4132 25.2404 17.5272C25.284 17.6412 25.3064 17.7633 25.3064 17.8867C25.3064 18.0101 25.284 18.1323 25.2404 18.2462C25.1969 18.3602 25.1331 18.4637 25.0527 18.5508L14.689 29.8072C14.5269 29.9833 14.3069 30.0822 14.0776 30.0822C13.8482 30.0822 13.6283 29.9833 13.4661 29.8072C13.304 29.631 13.2129 29.3921 13.2129 29.143C13.2129 28.8939 13.304 28.655 13.4661 28.4789L23.22 17.8867L13.4661 7.2945C13.3857 7.20737 13.3219 7.10385 13.2784 6.98989C13.2348 6.87593 13.2124 6.75376 13.2124 6.63038C13.2124 6.50699 13.2348 6.38482 13.2784 6.27086C13.3219 6.1569 13.3857 6.05339 13.4661 5.96625V5.96625Z" fill="#031B96"/>
</svg>
