<svg width="38" height="36" viewBox="0 0 38 36" fill="none" xmlns="http://www.w3.org/2000/svg">
<ellipse cx="19" cy="17.8853" rx="19" ry="17.8853" fill="#DEE3FE"/>
<path fill-rule="evenodd" clip-rule="evenodd" d="M24.7949 7.55574C24.8753 7.63125 24.9391 7.72097 24.9826 7.81973C25.0262 7.9185 25.0486 8.02438 25.0486 8.13132C25.0486 8.23825 25.0262 8.34413 24.9826 8.4429C24.9391 8.54167 24.8753 8.63138 24.7949 8.7069L15.041 17.887L24.7949 27.067C24.957 27.2197 25.0481 27.4267 25.0481 27.6426C25.0481 27.8585 24.957 28.0655 24.7949 28.2182C24.6327 28.3708 24.4127 28.4566 24.1834 28.4566C23.9541 28.4566 23.7341 28.3708 23.572 28.2182L13.2083 18.4625C13.1279 18.387 13.0641 18.2973 13.0205 18.1985C12.977 18.0998 12.9546 17.9939 12.9546 17.887C12.9546 17.78 12.977 17.6741 13.0205 17.5754C13.0641 17.4766 13.1279 17.3869 13.2083 17.3114L23.572 7.55574C23.6522 7.48003 23.7475 7.41996 23.8524 7.37898C23.9573 7.33799 24.0698 7.31689 24.1834 7.31689C24.297 7.31689 24.4095 7.33799 24.5144 7.37898C24.6193 7.41996 24.7146 7.48003 24.7949 7.55574V7.55574Z" fill="white"/>
</svg>
