<svg width="30" height="30" viewBox="0 0 30 30" fill="none" xmlns="http://www.w3.org/2000/svg">
<path d="M14.9999 26.25C14.627 26.25 14.2693 26.1019 14.0056 25.8382C13.7418 25.5744 13.5937 25.2167 13.5937 24.8438V8.36816L8.0793 14.5313C7.82999 14.8068 7.4818 14.9724 7.11077 14.992C6.73974 15.0116 6.37604 14.8835 6.09911 14.6358C5.82218 14.3881 5.65453 14.0409 5.63278 13.67C5.61104 13.2991 5.73696 12.9347 5.98305 12.6563L13.9518 3.75004C14.0837 3.60227 14.2454 3.48403 14.4261 3.40308C14.6069 3.32212 14.8028 3.28027 15.0009 3.28027C15.1989 3.28027 15.3948 3.32212 15.5756 3.40308C15.7564 3.48403 15.918 3.60227 16.0499 3.75004L24.0187 12.6563C24.143 12.7937 24.239 12.9544 24.3011 13.1291C24.3631 13.3037 24.3901 13.4889 24.3803 13.674C24.3705 13.8591 24.3242 14.0405 24.2441 14.2076C24.164 14.3748 24.0517 14.5244 23.9135 14.648C23.7754 14.7716 23.6141 14.8666 23.4391 14.9277C23.2641 14.9887 23.0787 15.0146 22.8937 15.0037C22.7087 14.9929 22.5276 14.9455 22.3609 14.8645C22.1942 14.7834 22.0452 14.6702 21.9224 14.5313L16.4062 8.36816V24.8438C16.4062 25.2167 16.258 25.5744 15.9943 25.8382C15.7306 26.1019 15.3729 26.25 14.9999 26.25Z" fill="#031B96"/>
</svg>
