<svg width="22" height="23" viewBox="0 0 22 23" fill="none" xmlns="http://www.w3.org/2000/svg">
<path fill-rule="evenodd" clip-rule="evenodd" d="M16.835 18.5733V18.5715L16.8512 18.5328L19.5503 4.92477V4.88157C19.5503 4.54227 19.4243 4.24617 19.1525 4.06887C18.914 3.91317 18.6395 3.90237 18.4469 3.91677C18.2676 3.93299 18.0907 3.96921 17.9195 4.02477C17.8465 4.04831 17.7744 4.07473 17.7035 4.10397L17.6918 4.10847L2.6438 10.0116L2.6393 10.0134C2.59355 10.029 2.54877 10.0473 2.5052 10.0683C2.39818 10.1164 2.2955 10.1736 2.1983 10.2393C2.0048 10.3725 1.6367 10.6857 1.6988 11.1825C1.7501 11.5947 2.0336 11.8557 2.2253 11.9916C2.33846 12.0709 2.46011 12.1373 2.588 12.1896L2.6168 12.2022L2.6258 12.2049L2.6321 12.2076L5.2655 13.0941C5.2565 13.2588 5.2727 13.4271 5.3168 13.5936L6.6353 18.5967C6.70733 18.8694 6.86298 19.1127 7.08037 19.2924C7.29777 19.4721 7.56601 19.5793 7.8474 19.5987C8.1288 19.6182 8.40922 19.549 8.64929 19.4009C8.88936 19.2528 9.07702 19.0333 9.1859 18.7731L11.2451 16.5717L14.7812 19.2825L14.8316 19.3041C15.1529 19.4445 15.4526 19.4886 15.7271 19.4517C16.0016 19.4139 16.2194 19.2987 16.3832 19.1682C16.5727 19.0146 16.7237 18.8189 16.8242 18.5967L16.8314 18.5814L16.8341 18.576L16.835 18.5733ZM6.6218 13.2498C6.6072 13.1943 6.61067 13.1355 6.63171 13.0821C6.65275 13.0287 6.69026 12.9834 6.7388 12.9528L15.6677 7.28277C15.6677 7.28277 16.1933 6.96327 16.1744 7.28277C16.1744 7.28277 16.268 7.33857 15.9863 7.60047C15.7199 7.84977 9.6224 13.7367 9.005 14.3325C8.97067 14.3658 8.94662 14.4083 8.9357 14.4549L7.9403 18.2529L6.6218 13.2498Z" fill="#031B96"/>
</svg>
