<svg width="25" height="25" viewBox="0 0 25 25" fill="none" xmlns="http://www.w3.org/2000/svg">
<path fill-rule="evenodd" clip-rule="evenodd" d="M7.40024 3.8623C6.33937 3.8623 5.32196 4.28373 4.57181 5.03388C3.82167 5.78402 3.40024 6.80144 3.40024 7.8623V17.8623C3.40024 18.9232 3.82167 19.9406 4.57181 20.6907C5.32196 21.4409 6.33937 21.8623 7.40024 21.8623H17.4002C18.4611 21.8623 19.4785 21.4409 20.2287 20.6907C20.9788 19.9406 21.4002 18.9232 21.4002 17.8623V7.8623C21.4002 6.80144 20.9788 5.78402 20.2287 5.03388C19.4785 4.28373 18.4611 3.8623 17.4002 3.8623H7.40024ZM17.7322 10.9173C17.8794 10.6966 17.9329 10.4265 17.881 10.1664C17.829 9.90632 17.6759 9.6775 17.4552 9.5303C17.2346 9.38311 16.9645 9.3296 16.7044 9.38155C16.4443 9.4335 16.2154 9.58664 16.0682 9.8073C15.7142 10.2773 15.3432 10.7273 14.9092 11.1273C14.4062 11.5913 13.8972 11.9393 13.4012 12.1453L13.3932 10.2453C13.3646 10.0021 13.2476 9.77778 13.0646 9.61502C12.8816 9.45226 12.6452 9.36234 12.4002 9.3623C11.8582 9.3933 11.4002 9.7933 11.4002 10.3623V14.7353C9.45224 14.1953 8.40024 12.3053 8.40024 10.3623C8.40024 10.0971 8.29488 9.84273 8.10734 9.6552C7.91981 9.46766 7.66545 9.3623 7.40024 9.3623C7.13502 9.3623 6.88067 9.46766 6.69313 9.6552C6.50559 9.84273 6.40024 10.0971 6.40024 10.3623C6.40024 13.9943 8.91024 16.8623 12.4002 16.8623C12.6655 16.8623 12.9198 16.7569 13.1073 16.5694C13.2949 16.3819 13.4002 16.1275 13.4002 15.8623V14.2993C14.7322 14.4053 16.0242 15.3463 16.5062 16.3093C16.5624 16.4309 16.6424 16.5399 16.7415 16.63C16.8406 16.7201 16.9568 16.7893 17.0832 16.8336C17.2096 16.8779 17.3436 16.8964 17.4772 16.8879C17.6109 16.8795 17.7415 16.8443 17.8613 16.7844C17.9811 16.7245 18.0876 16.6411 18.1746 16.5393C18.2615 16.4374 18.3271 16.3192 18.3675 16.1915C18.4079 16.0638 18.4222 15.9293 18.4096 15.796C18.397 15.6626 18.3578 15.5332 18.2942 15.4153C17.8162 14.4583 16.9242 13.5633 15.8262 12.9793C15.9742 12.8583 16.1212 12.7303 16.2662 12.5973C16.8172 12.0949 17.309 11.5312 17.7322 10.9173Z" fill="#031B96"/>
</svg>
