<svg width="22" height="23" viewBox="0 0 22 23" fill="none" xmlns="http://www.w3.org/2000/svg">
<path d="M19.0327 6.48598C16.2112 2.11198 10.4332 0.815981 5.96471 3.52948C1.60421 6.24298 0.20021 12.156 3.02171 16.5165L3.25121 16.8675L2.30621 20.4045L5.84321 19.4595L6.19421 19.689C7.71971 20.5125 9.38021 20.985 11.0272 20.985C12.7957 20.985 14.5642 20.5125 16.0897 19.5675C20.4502 16.7325 21.7462 10.941 19.0327 6.45898V6.48598ZM16.5622 15.585C16.0897 16.287 15.4957 16.7595 14.6722 16.881C14.1997 16.881 13.6057 17.1105 11.2567 16.179C9.25871 15.234 7.59821 13.695 6.42371 11.9265C5.72171 11.103 5.35721 10.0365 5.24921 8.96998C5.24921 8.02498 5.60021 7.20148 6.19421 6.60748C6.42371 6.37798 6.66671 6.25648 6.89621 6.25648H7.49021C7.71971 6.25648 7.96271 6.25648 8.08421 6.72898C8.31371 7.32298 8.90771 8.74048 8.90771 8.86198C9.02921 8.98348 8.97521 9.88798 8.43521 10.401C8.13821 10.7385 8.08421 10.752 8.20571 10.995C8.67821 11.697 9.27221 12.4125 9.85271 13.0065C10.5547 13.6005 11.2702 14.073 12.0937 14.424C12.3232 14.5455 12.5662 14.5455 12.6877 14.3025C12.8092 14.073 13.3897 13.479 13.6327 13.236C13.8622 13.0065 13.9837 13.0065 14.2267 13.1145L16.1167 14.0595C16.3462 14.181 16.5892 14.289 16.7107 14.4105C16.8322 14.7615 16.8322 15.234 16.5892 15.585H16.5622Z" fill="#031B96"/>
</svg>
