<svg width="23" height="23" viewBox="0 0 23 23" fill="none" xmlns="http://www.w3.org/2000/svg">
<path d="M9.78656 14.383L14.4737 11.5368L9.78656 8.6905V14.383ZM20.2266 6.95429C20.344 7.40021 20.4253 7.99792 20.4795 8.75692C20.5427 9.51592 20.5698 10.1706 20.5698 10.7398L20.624 11.5368C20.624 13.6145 20.4795 15.142 20.2266 16.1192C20.0008 16.9731 19.477 17.5234 18.6642 17.7605C18.2398 17.8839 17.4631 17.9693 16.271 18.0262C15.0969 18.0926 14.0222 18.1211 13.0288 18.1211L11.5928 18.178C7.80873 18.178 5.45159 18.0262 4.52138 17.7605C3.70858 17.5234 3.18477 16.9731 2.95899 16.1192C2.84158 15.6733 2.7603 15.0756 2.70611 14.3166C2.6429 13.5576 2.6158 12.903 2.6158 12.3337L2.56161 11.5368C2.56161 9.45899 2.70611 7.93151 2.95899 6.95429C3.18477 6.10042 3.70858 5.55014 4.52138 5.31296C4.94585 5.18962 5.72253 5.10423 6.91465 5.04731C8.0887 4.9809 9.16341 4.95243 10.1568 4.95243L11.5928 4.89551C15.3769 4.89551 17.734 5.04731 18.6642 5.31296C19.477 5.55014 20.0008 6.10042 20.2266 6.95429Z" fill="#031B96"/>
</svg>
