<svg width="48.000000" height="48.000000" viewBox="0 0 48 48" fill="none" xmlns="http://www.w3.org/2000/svg" xmlns:xlink="http://www.w3.org/1999/xlink">
	<desc>
			Created with Pixso.
	</desc>
	<defs/>
	<rect id="cards-1" width="48.000000" height="48.000000" fill="#FFFFFF" fill-opacity="0"/>
	<path id="Vector" d="M48 24C48 10.7455 37.2545 0 24 0C10.7455 0 0 10.7455 0 24C0 37.2545 10.7455 48 24 48C37.2545 48 48 37.2545 48 24ZM9.3436 38.6564C5.45648 34.7693 3.27274 29.4972 3.27274 24C3.27274 18.5028 5.45648 13.2307 9.3436 9.34363C13.2307 5.45654 18.5028 3.27271 24 3.27271C29.4972 3.27271 34.7693 5.45654 38.6564 9.34363C42.5435 13.2307 44.7273 18.5028 44.7273 24C44.7273 29.4972 42.5435 34.7693 38.6564 38.6564C34.7693 42.5435 29.4972 44.7273 24 44.7273C18.5028 44.7273 13.2307 42.5435 9.3436 38.6564ZM34.9249 17.511C34.9317 17.8995 34.7875 18.2756 34.5225 18.5601L21.5225 31.5601C21.2413 31.8409 20.86 31.9987 20.4625 31.9987C20.065 31.9987 19.6838 31.8409 19.4025 31.5601L13.4025 25.5601C13.1376 25.2756 12.9933 24.8995 13.0002 24.511C13.007 24.1223 13.1645 23.7516 13.4393 23.4768C13.7141 23.2019 14.0849 23.0446 14.4735 23.0376C14.8621 23.0308 15.2382 23.175 15.5225 23.4399L20.4625 28.38L32.4025 16.4399C32.6869 16.175 33.063 16.0308 33.4516 16.0376C33.8402 16.0446 34.2109 16.2019 34.4858 16.4768C34.7606 16.7516 34.918 17.1223 34.9249 17.511Z" fill="#052AE9" fill-opacity="1.000000" fill-rule="evenodd"/>
</svg>
