<svg width="48.000000" height="48.000000" viewBox="0 0 48 48" fill="none" xmlns="http://www.w3.org/2000/svg" xmlns:xlink="http://www.w3.org/1999/xlink">
	<desc>
			Created with Pixso.
	</desc>
	<defs>
		<clipPath id="clip3_692">
			<rect id="cards-3" width="48.000000" height="48.000000" fill="white" fill-opacity="0"/>
		</clipPath>
	</defs>
	<rect id="cards-3" width="48.000000" height="48.000000" fill="#FFFFFF" fill-opacity="0"/>
	<g clip-path="url(#clip3_692)">
		<path id="Vector" d="M16.6251 22.8446L22.8419 16.6116L17.2512 11.0045L14.102 14.1537L12.1749 12.2294L15.3105 9.07739L9.99738 3.76428L3.76434 9.99744L16.6251 22.8446ZM37.9482 44.184L44.1812 37.9509L38.8708 32.6378L35.719 35.7734L33.7919 33.8463L36.9275 30.6945L31.3749 25.1582L25.1554 31.3749L37.9482 44.184ZM11.3039 45.2782L2.72186 45.2782L2.72186 36.6934L14.6817 24.7335L0 9.99744L9.99738 0L24.8016 14.7524L36.9601 2.57764C37.2595 2.27637 37.5753 2.05957 37.9073 1.92712C38.2394 1.79456 38.5933 1.72839 38.9689 1.72839C39.3463 1.72839 39.7001 1.79456 40.0304 1.92712C40.3607 2.05957 40.6773 2.27637 40.9803 2.57764L45.4224 7.19385C45.7236 7.49329 45.9323 7.80896 46.0484 8.14111C46.1627 8.47131 46.2199 8.8252 46.2199 9.20264C46.2199 9.58008 46.1619 9.92297 46.0457 10.2314C45.9314 10.5399 45.7236 10.8448 45.4224 11.146L33.37 23.2665L48 38.0026L38.0026 48L23.2665 33.3182L11.3039 45.2782ZM5.44373 42.5563L10.1444 42.5563L36.873 15.8467L32.1533 11.1296L5.44373 37.8584L5.44373 42.5563ZM34.5458 13.4678L32.1533 11.1296L36.8703 15.8467L34.5458 13.4678Z" fill="#052AE9" fill-opacity="1.000000" fill-rule="nonzero"/>
	</g>
</svg>
