<svg width="48.000000" height="48.000000" viewBox="0 0 48 48" fill="none" xmlns="http://www.w3.org/2000/svg" xmlns:xlink="http://www.w3.org/1999/xlink">
	<desc>
			Created with Pixso.
	</desc>
	<defs/>
	<rect id="cards-6" width="48.000000" height="48.000000" fill="#FFFFFF" fill-opacity="0"/>
	<path id="Vector" d="M7 4C6.20435 4 5.44128 4.31616 4.87869 4.87866C4.31607 5.44141 4 6.20435 4 7L4 41C4 41.7957 4.31607 42.5586 4.87869 43.1213C5.44128 43.6838 6.20435 44 7 44L41 44C41.7957 44 42.5587 43.6838 43.1213 43.1213C43.6839 42.5586 44 41.7957 44 41L44 7C44 6.20435 43.6839 5.44141 43.1213 4.87866C42.5587 4.31616 41.7957 4 41 4L7 4Z" stroke="#052AE9" stroke-opacity="1.000000" stroke-width="3.000000" stroke-linejoin="round"/>
	<path id="Vector" d="M12 14C12.5304 14 13.0392 13.7893 13.4142 13.4143C13.7893 13.0391 14 12.5305 14 12C14 11.4695 13.7893 10.9609 13.4142 10.5857C13.0392 10.2107 12.5304 10 12 10C11.4696 10 10.9608 10.2107 10.5858 10.5857C10.2107 10.9609 10 11.4695 10 12C10 12.5305 10.2107 13.0391 10.5858 13.4143C10.9608 13.7893 11.4696 14 12 14ZM12 38C12.5304 38 13.0392 37.7893 13.4142 37.4143C13.7893 37.0391 14 36.5305 14 36C14 35.4695 13.7893 34.9609 13.4142 34.5857C13.0392 34.2107 12.5304 34 12 34C11.4696 34 10.9608 34.2107 10.5858 34.5857C10.2107 34.9609 10 35.4695 10 36C10 36.5305 10.2107 37.0391 10.5858 37.4143C10.9608 37.7893 11.4696 38 12 38ZM36 14C36.5305 14 37.0391 13.7893 37.4142 13.4143C37.7893 13.0391 38 12.5305 38 12C38 11.4695 37.7893 10.9609 37.4142 10.5857C37.0391 10.2107 36.5305 10 36 10C35.4695 10 34.9609 10.2107 34.5858 10.5857C34.2107 10.9609 34 11.4695 34 12C34 12.5305 34.2107 13.0391 34.5858 13.4143C34.9609 13.7893 35.4695 14 36 14ZM36 38C36.5305 38 37.0391 37.7893 37.4142 37.4143C37.7893 37.0391 38 36.5305 38 36C38 35.4695 37.7893 34.9609 37.4142 34.5857C37.0391 34.2107 36.5305 34 36 34C35.4695 34 34.9609 34.2107 34.5858 34.5857C34.2107 34.9609 34 35.4695 34 36C34 36.5305 34.2107 37.0391 34.5858 37.4143C34.9609 37.7893 35.4695 38 36 38Z" fill="#052AE9" fill-opacity="1.000000" fill-rule="nonzero"/>
	<path id="Vector" d="M30.364 30.364C32.0518 28.676 33 26.387 33 24C33 21.613 32.0518 19.324 30.364 17.636C28.6761 15.9482 26.387 15 24 15C21.613 15 19.3239 15.9482 17.636 17.636C15.9482 19.324 15 21.613 15 24C15 26.387 15.9482 28.676 17.636 30.364C19.3239 32.0518 21.613 33 24 33C26.387 33 28.6761 32.0518 30.364 30.364Z" stroke="#052AE9" stroke-opacity="1.000000" stroke-width="3.000000" stroke-linejoin="round"/>
</svg>
