<svg width="48.000000" height="48.000000" viewBox="0 0 48 48" fill="none" xmlns="http://www.w3.org/2000/svg" xmlns:xlink="http://www.w3.org/1999/xlink">
	<desc>
			Created with Pixso.
	</desc>
	<defs/>
	<rect id="cards-2" width="48.000000" height="48.000000" fill="#FFFFFF" fill-opacity="0"/>
	<path id="Vector" d="M44.859 22.5253C44.952 23.2454 45 24.0106 45 24.8241C45 29.4491 43.605 32.5585 42.27 34.4897C41.7427 35.2565 41.1286 35.9592 40.44 36.5839C40.2151 36.7861 39.9787 36.9753 39.732 37.1503L39.705 37.1683C39.4893 37.3037 39.3114 37.4921 39.188 37.7156C39.0647 37.939 39 38.1903 39 38.4458L39 43.4805C39 43.8801 38.842 44.2633 38.5607 44.5458C38.2794 44.8282 37.8978 44.9871 37.5 44.9871L33.348 44.9871C33.2557 44.9871 33.1672 44.9502 33.1019 44.8846C33.0367 44.8191 33 44.7302 33 44.6375C33 42.7786 31.5 41.272 29.652 41.272L24.348 41.272C22.5 41.272 21 42.7786 21 44.6375C21 44.7302 20.9633 44.8191 20.8981 44.8846C20.8328 44.9502 20.7443 44.9871 20.652 44.9871L16.5 44.9871C16.1022 44.9871 15.7206 44.8282 15.4393 44.5458C15.158 44.2633 15 43.8801 15 43.4805L15 40.9194C14.9991 40.604 14.8996 40.2966 14.7155 40.041C14.5315 39.7853 14.2721 39.5941 13.974 39.4944L13.854 39.4371C13.6158 39.3195 13.3853 39.1866 13.164 39.0394C12.504 38.6116 11.463 37.8162 10.068 36.397C8.80972 35.0962 7.79637 33.5771 7.077 31.9137C6.525 30.6422 5.37 29.5244 3.825 29.2622C3.59502 29.2233 3.38615 29.1039 3.23521 28.9253C3.08428 28.7467 3.00098 28.5203 3 28.286L3 23.7455C3 23.5388 3.07294 23.3389 3.20586 23.1812C3.33878 23.0233 3.52306 22.918 3.726 22.8838C5.376 22.6035 6.54601 21.3351 7.002 19.9371C7.392 18.7379 8.094 17.1652 9.258 15.9811C10.2396 14.9979 11.3378 14.1399 12.528 13.426C13.0049 13.1381 13.4954 12.8735 13.998 12.6337L14.076 12.5974L14.091 12.5914C14.3615 12.475 14.5919 12.2812 14.7535 12.0343C14.9151 11.7872 15.0008 11.498 15 11.2024L15 4.88428C15.759 5.54712 16.644 6.26416 17.598 6.90295C18.9 7.78271 20.451 8.60828 22.044 8.90662C22.4123 7.90173 22.8955 6.94312 23.484 6.05029C23.301 6.03076 23.118 6.01172 22.935 5.99304C21.87 5.88452 20.589 5.29102 19.266 4.4021C18.0748 3.57947 16.9558 2.65613 15.921 1.64221C15.5972 1.33203 15.1908 1.1228 14.7509 1.03979C14.3111 0.956909 13.8568 1.00403 13.443 1.17529C13.0184 1.34265 12.6537 1.63452 12.3964 2.0127C12.1391 2.39099 12.0009 2.83826 12 3.29639L12 10.2684C10.2075 11.2201 8.56391 12.4313 7.122 13.8629C5.493 15.52 4.608 17.599 4.152 19C3.972 19.5364 3.582 19.8528 3.228 19.913C2.32617 20.0653 1.5072 20.5336 0.916309 21.2345C0.325424 21.9355 0.000797272 22.824 0 23.7424L0 28.2831C-0.000465393 29.2302 0.333134 30.147 0.941624 30.8706C1.55011 31.5942 2.39415 32.078 3.324 32.2361C3.699 32.2964 4.104 32.6036 4.326 33.1189C5.193 35.1211 6.41483 36.9485 7.932 38.5121C9.459 40.0668 10.665 41.0039 11.529 41.5673C11.7 41.6787 11.859 41.7751 12 41.8595L12 43.4805C12 44.074 12.1164 44.6617 12.3425 45.2101C12.5687 45.7584 12.9002 46.2566 13.318 46.6763C13.7359 47.0959 14.232 47.4288 14.7779 47.656C15.3239 47.8831 15.909 48 16.5 48L20.652 48C22.5 48 24 46.4935 24 44.6375C24 44.4417 24.156 44.285 24.348 44.285L29.652 44.285C29.844 44.285 30 44.4417 30 44.6375C30 46.4935 31.5 48 33.348 48L37.5 48C38.6935 48 39.8381 47.5238 40.682 46.6763C41.5259 45.8287 42 44.6792 42 43.4805L42 39.2051C43.0416 38.3364 43.9601 37.3287 44.73 36.2102C46.395 33.8088 48 30.106 48 24.8241C48 22.6367 47.697 20.6782 47.121 18.9277C46.5598 20.2388 45.7964 21.4528 44.859 22.5253ZM44.409 9.53027C45.3091 11.7155 45.4518 14.141 44.8142 16.4175C44.1765 18.694 42.7955 20.689 40.893 22.0823C39.603 23.0223 37.902 22.9561 36.432 22.3445L27.312 18.5511C25.842 17.9395 24.591 16.7795 24.342 15.2007C23.9538 12.6562 24.5056 10.0571 25.8935 7.89307C27.2814 5.729 29.4094 4.14954 31.8766 3.45227C34.3438 2.755 36.9798 2.98804 39.2877 4.10767C41.5956 5.22717 43.419 7.15588 44.409 9.53027ZM39.129 19.6478C40.2063 18.8601 41.0552 17.7983 41.5883 16.5717C42.1214 15.3451 42.3195 13.9979 42.1621 12.6689C42.0048 11.34 41.4977 10.077 40.6931 9.01013C39.8885 7.94336 38.8153 7.11108 37.5841 6.599C36.3529 6.08691 35.0081 5.91357 33.688 6.0968C32.368 6.28003 31.1203 6.81311 30.0735 7.64136C29.0267 8.46948 28.2185 9.56287 27.7321 10.8088C27.2457 12.0549 27.0986 13.4086 27.306 14.7307C27.3411 14.9016 27.4281 15.0574 27.555 15.1765C27.747 15.3815 28.053 15.5984 28.461 15.7671L37.581 19.5635C37.9145 19.7081 38.2738 19.783 38.637 19.7834C38.811 19.7904 38.9829 19.743 39.129 19.6478ZM14.25 22.3896C14.8467 22.3896 15.419 22.1516 15.841 21.7278C16.2629 21.304 16.5 20.7292 16.5 20.1299C16.5 19.5306 16.2629 18.9558 15.841 18.532C15.419 18.1083 14.8467 17.8702 14.25 17.8702C13.6533 17.8702 13.081 18.1083 12.659 18.532C12.2371 18.9558 12 19.5306 12 20.1299C12 20.7292 12.2371 21.304 12.659 21.7278C13.081 22.1516 13.6533 22.3896 14.25 22.3896Z" fill="#031B96" fill-opacity="1.000000" fill-rule="nonzero"/>
</svg>
