<svg width="48.000000" height="48.000000" viewBox="0 0 48 48" fill="none" xmlns="http://www.w3.org/2000/svg" xmlns:xlink="http://www.w3.org/1999/xlink">
	<desc>
			Created with Pixso.
	</desc>
	<defs/>
	<rect id="cards-4" width="48.000000" height="48.000000" fill="#FFFFFF" fill-opacity="0"/>
	<path id="Vector" d="M38.5371 43.5088C38.1651 44.113 37.6655 44.6287 37.0732 45.0195C36.481 45.4104 35.8104 45.667 35.1086 45.7715C30.1371 46.6287 17.76 47.5886 11.1086 37.9202C4.56 28.8 4.83429 12.7544 5.41714 5.10864C5.44012 4.53906 5.59805 3.98291 5.87796 3.48633C6.15784 2.98975 6.5517 2.56665 7.02707 2.25195C7.50244 1.93726 8.04575 1.73999 8.61227 1.67627C9.1788 1.61255 9.75235 1.68457 10.2857 1.88574C17.6571 4.01147 33.0172 9.32593 39.4629 18.4458C46.32 28.1145 41.0743 39.1887 38.5371 43.5088Z" stroke="#052AE9" stroke-opacity="1.000000" stroke-width="3.000000" stroke-linejoin="round"/>
	<path id="Vector" d="M16.3543 15.2571C24.2075 24.5117 31.1001 34.5403 36.9257 45.1885" stroke="#052AE9" stroke-opacity="1.000000" stroke-width="3.000000" stroke-linejoin="round" stroke-linecap="round"/>
</svg>
