<svg width="48.000000" height="48.000000" viewBox="0 0 48 48" fill="none" xmlns="http://www.w3.org/2000/svg" xmlns:xlink="http://www.w3.org/1999/xlink">
	<desc>
			Created with Pixso.
	</desc>
	<defs/>
	<rect id="cards-5" width="48.000000" height="48.000000" fill="#FFFFFF" fill-opacity="0"/>
	<path id="Vector" d="M42 3L34.5 3L34.5 6L42 6L42 42L34.5 42L34.5 45L42 45C42.7949 44.9976 43.5566 44.6809 44.1187 44.1187C44.6808 43.5566 44.9976 42.7949 45 42L45 6C44.9976 5.20508 44.6808 4.44336 44.1187 3.88135C43.5566 3.31909 42.7949 3.00244 42 3ZM21 25.5L12 25.5C11.7999 25.488 11.5995 25.5186 11.412 25.5896C11.2246 25.6609 11.0544 25.7708 10.9126 25.9126C10.7709 26.0544 10.6608 26.2246 10.5896 26.4121C10.5185 26.5994 10.488 26.7998 10.5 27L10.5 36C10.488 36.2002 10.5185 36.4006 10.5896 36.5879C10.6608 36.7754 10.7709 36.9456 10.9126 37.0874C11.0544 37.2292 11.2246 37.3391 11.412 37.4104C11.5995 37.4814 11.7999 37.512 12 37.5L21 37.5C21.2001 37.512 21.4005 37.4814 21.5879 37.4104C21.7754 37.3391 21.9456 37.2292 22.0874 37.0874C22.2291 36.9456 22.3392 36.7754 22.4103 36.5879C22.4815 36.4006 22.512 36.2002 22.5 36L22.5 27C22.512 26.7998 22.4815 26.5994 22.4103 26.4121C22.3392 26.2246 22.2291 26.0544 22.0874 25.9126C21.9456 25.7708 21.7754 25.6609 21.5879 25.5896C21.4005 25.5186 21.2001 25.488 21 25.5ZM19.5 34.5L13.5 34.5L13.5 28.5L19.5 28.5L19.5 34.5Z" fill="#052AE9" fill-opacity="1.000000" fill-rule="nonzero"/>
	<path id="Vector" d="M37.5 36L37.5 27C37.512 26.8 37.4815 26.5996 37.4103 26.4121C37.3392 26.2246 37.2291 26.0544 37.0874 25.9128C36.9456 25.771 36.7754 25.6609 36.588 25.5898C36.4005 25.5186 36.2001 25.488 36 25.5L27 25.5C26.7999 25.488 26.5995 25.5186 26.412 25.5898C26.2246 25.6609 26.0544 25.771 25.9126 25.9128C25.7709 26.0544 25.6608 26.2246 25.5896 26.4121C25.5185 26.5996 25.488 26.8 25.5 27L25.5 36C25.488 36.2002 25.5185 36.4006 25.5896 36.5881C25.6608 36.7754 25.7709 36.9458 25.9126 37.0874C26.0544 37.2292 26.2246 37.3394 26.412 37.4104C26.5995 37.4817 26.7999 37.5122 27 37.5L36 37.5C36.3976 37.4993 36.7786 37.3411 37.0598 37.0598C37.3409 36.7788 37.4992 36.3977 37.5 36ZM34.5 34.5L28.5 34.5L28.5 28.5L34.5 28.5L34.5 34.5ZM21 10.5L12 10.5C11.7999 10.488 11.5995 10.5186 11.412 10.5898C11.2246 10.6609 11.0544 10.771 10.9126 10.9128C10.7709 11.0544 10.6608 11.2246 10.5896 11.4121C10.5185 11.5996 10.488 11.8 10.5 12L10.5 21C10.488 21.2002 10.5185 21.4006 10.5896 21.5881C10.6608 21.7754 10.7709 21.9458 10.9126 22.0874C11.0544 22.2292 11.2246 22.3394 11.412 22.4104C11.5995 22.4817 11.7999 22.5122 12 22.5L21 22.5C21.2001 22.5122 21.4005 22.4817 21.588 22.4104C21.7754 22.3394 21.9456 22.2292 22.0874 22.0874C22.2291 21.9458 22.3392 21.7754 22.4103 21.5881C22.4815 21.4006 22.512 21.2002 22.5 21L22.5 12C22.512 11.8 22.4815 11.5996 22.4103 11.4121C22.3392 11.2246 22.2291 11.0544 22.0874 10.9128C21.9456 10.771 21.7754 10.6609 21.588 10.5898C21.4005 10.5186 21.2001 10.488 21 10.5ZM19.5 19.5L13.5 19.5L13.5 13.5L19.5 13.5L19.5 19.5ZM27 22.5L36 22.5C36.2001 22.5122 36.4005 22.4817 36.588 22.4104C36.7754 22.3394 36.9456 22.2292 37.0874 22.0874C37.2291 21.9458 37.3392 21.7754 37.4103 21.5881C37.4815 21.4006 37.512 21.2002 37.5 21L37.5 12C37.512 11.8 37.4815 11.5996 37.4103 11.4121C37.3392 11.2246 37.2291 11.0544 37.0874 10.9128C36.9456 10.771 36.7754 10.6609 36.588 10.5898C36.4005 10.5186 36.2001 10.488 36 10.5L27 10.5C26.7999 10.488 26.5995 10.5186 26.412 10.5898C26.2246 10.6609 26.0544 10.771 25.9126 10.9128C25.7709 11.0544 25.6608 11.2246 25.5896 11.4121C25.5185 11.5996 25.488 11.8 25.5 12L25.5 21C25.5008 21.3977 25.6591 21.7788 25.9402 22.0598C26.2213 22.3411 26.6024 22.4993 27 22.5ZM28.5 13.5L34.5 13.5L34.5 19.5L28.5 19.5L28.5 13.5Z" fill="#052AE9" fill-opacity="1.000000" fill-rule="nonzero"/>
	<path id="Vector" d="M6 6L13.5 6L13.5 3L6 3C5.20508 3.00244 4.4434 3.31909 3.8813 3.88135C3.31921 4.44336 3.00237 5.20508 3 6L3 42C3.00237 42.7949 3.31921 43.5566 3.8813 44.1187C4.4434 44.6809 5.20508 44.9976 6 45L13.5 45L13.5 42L6 42L6 6Z" fill="#052AE9" fill-opacity="1.000000" fill-rule="nonzero"/>
</svg>
